<svg xmlns="http://www.w3.org/2000/svg" viewBox="0 0 1440 178" preserveAspectRatio="xMidYMid meet" fill="#000">
<g id="Logo MindColor Desktop">
<g id="MindColor">
<path d="M48.4066 175.42H0V2.57971H65.6579L97.3282 74.2956L114.322 118.925H117.669L133.891 74.2956L164.016 2.57971H229.674V175.42H181.267V103.962L183.07 75.0696H179.722L169.938 103.962L144.19 165.101H85.484L59.7358 103.962L49.9515 75.0696H46.6042L48.4066 103.962V175.42Z" fill="var(--fill-0, black)"/>
<path d="M303.867 175.42H255.46V45.4029H303.867V175.42ZM303.867 33.5362H255.46V2.57971H303.867V33.5362Z" fill="var(--fill-0, black)"/>
<path d="M480.769 175.42H432.362V109.896C432.362 100.781 430.388 94.5894 426.44 91.3217C422.492 87.8821 415.197 86.1623 404.554 86.1623C393.912 86.1623 386.788 87.7961 383.183 91.0638C379.75 94.1594 378.034 99.9208 378.034 108.348H373.142L369.022 84.8725H377.519C378.549 77.6493 380.866 70.856 384.471 64.4928C388.247 58.1295 393.74 52.97 400.95 49.0145C408.331 44.887 417.772 42.8232 429.273 42.8232C440.945 42.8232 450.558 44.9729 458.111 49.2725C465.835 53.572 471.5 59.4193 475.104 66.8145C478.881 74.2097 480.769 82.6367 480.769 92.0956V175.42ZM378.034 175.42H329.627V45.4029H374.944V85.3884L378.034 86.6783V175.42Z" fill="var(--fill-0, black)"/>
<path d="M564.342 178C551.125 178 539.881 175.334 530.612 170.003C521.514 164.5 514.562 156.674 509.756 146.528C505.121 136.381 502.804 124.342 502.804 110.412C502.804 96.3092 505.121 84.2705 509.756 74.2956C514.391 64.1488 521.085 56.4097 529.839 51.0783C538.766 45.5749 549.58 42.8232 562.282 42.8232C577.559 42.8232 589.06 46.1768 596.785 52.8841C604.509 59.4193 609.316 68.1043 611.204 78.9391H618.671V108.864H613.779C613.779 99.7488 611.118 93.8154 605.797 91.0638C600.647 88.3121 592.665 86.9362 581.851 86.9362C574.47 86.9362 568.548 87.7101 564.085 89.258C559.622 90.8058 556.446 93.2995 554.558 96.7391C552.67 100.007 551.725 104.564 551.725 110.412C551.725 116.087 552.67 120.644 554.558 124.084C556.446 127.524 559.622 130.017 564.085 131.565C568.548 132.941 574.47 133.629 581.851 133.629C589.06 133.629 594.982 133.027 599.617 131.823C604.423 130.619 607.942 128.384 610.174 125.116C612.577 121.676 613.779 116.861 613.779 110.67H618.671L622.275 140.336H614.294C612.234 153.235 607.17 162.78 599.102 168.971C591.206 174.99 579.619 178 564.342 178ZM662.185 175.42H616.868V138.788L613.779 135.435V2.57971H662.185V175.42Z" fill="var(--fill-0, black)"/>
<path d="M780.613 178C760.701 178 743.621 174.388 729.374 167.165C715.127 159.77 704.227 149.451 696.674 136.209C689.121 122.794 685.345 107.058 685.345 89C685.345 70.942 689.121 55.2918 696.674 42.0493C704.227 28.6348 715.127 18.3159 729.374 11.0927C743.621 3.69758 760.701 0 780.613 0C800.01 0 816.574 2.92367 830.307 8.77101C844.211 14.6183 854.853 23.0454 862.235 34.0522C869.616 45.0589 873.306 58.3014 873.306 73.7797V78.1652H819.235V73.7797C819.235 63.9768 816.489 57.0116 810.996 52.8841C805.503 48.5845 795.633 46.4348 781.385 46.4348C769.713 46.4348 760.615 47.6386 754.092 50.0464C747.741 52.2821 743.278 56.4956 740.703 62.687C738.128 68.7063 736.841 77.4773 736.841 89C736.841 100.351 738.128 109.122 740.703 115.313C743.278 121.504 747.741 125.804 754.092 128.212C760.615 130.447 769.713 131.565 781.385 131.565C795.633 131.565 805.503 129.501 810.996 125.374C816.489 121.074 819.235 114.023 819.235 104.22V99.8348H873.306V104.22C873.306 119.527 869.616 132.769 862.235 143.948C854.853 154.955 844.211 163.382 830.307 169.229C816.574 175.076 800.01 178 780.613 178Z" fill="var(--fill-0, black)"/>
<path d="M968.197 178C953.263 178 940.045 175.334 928.544 170.003C917.215 164.5 908.375 156.674 902.024 146.528C895.672 136.381 892.497 124.342 892.497 110.412C892.497 96.3092 895.672 84.2705 902.024 74.2956C908.375 64.1488 917.215 56.4097 928.544 51.0783C940.045 45.5749 953.263 42.8232 968.197 42.8232C983.302 42.8232 996.519 45.5749 1007.85 51.0783C1019.18 56.4097 1028.02 64.1488 1034.37 74.2956C1040.72 84.2705 1043.9 96.3092 1043.9 110.412C1043.9 124.342 1040.72 136.381 1034.37 146.528C1028.02 156.674 1019.18 164.5 1007.85 170.003C996.519 175.334 983.302 178 968.197 178ZM968.197 135.177C979.182 135.177 986.564 133.457 990.34 130.017C994.116 126.406 996.004 119.871 996.004 110.412C996.004 100.953 994.116 94.4174 990.34 90.8058C986.564 87.1942 979.182 85.3884 968.197 85.3884C957.211 85.3884 949.829 87.1942 946.053 90.8058C942.277 94.4174 940.388 100.953 940.388 110.412C940.388 119.871 942.277 126.406 946.053 130.017C949.829 133.457 957.211 135.177 968.197 135.177Z" fill="var(--fill-0, black)"/>
<path d="M1114.23 175.42H1065.82V2.57971H1114.23V175.42Z" fill="var(--fill-0, black)"/>
<path d="M1211.83 178C1196.89 178 1183.68 175.334 1172.18 170.003C1160.85 164.5 1152.01 156.674 1145.66 146.528C1139.3 136.381 1136.13 124.342 1136.13 110.412C1136.13 96.3092 1139.3 84.2705 1145.66 74.2956C1152.01 64.1488 1160.85 56.4097 1172.18 51.0783C1183.68 45.5749 1196.89 42.8232 1211.83 42.8232C1226.93 42.8232 1240.15 45.5749 1251.48 51.0783C1262.81 56.4097 1271.65 64.1488 1278 74.2956C1284.35 84.2705 1287.53 96.3092 1287.53 110.412C1287.53 124.342 1284.35 136.381 1278 146.528C1271.65 156.674 1262.81 164.5 1251.48 170.003C1240.15 175.334 1226.93 178 1211.83 178ZM1211.83 135.177C1222.81 135.177 1230.2 133.457 1233.97 130.017C1237.75 126.406 1239.64 119.871 1239.64 110.412C1239.64 100.953 1237.75 94.4174 1233.97 90.8058C1230.2 87.1942 1222.81 85.3884 1211.83 85.3884C1200.84 85.3884 1193.46 87.1942 1189.69 90.8058C1185.91 94.4174 1184.02 100.953 1184.02 110.412C1184.02 119.871 1185.91 126.406 1189.69 130.017C1193.46 133.457 1200.84 135.177 1211.83 135.177Z" fill="var(--fill-0, black)"/>
<path d="M1357.86 175.42H1309.46V45.4029H1354.77V82.5507L1357.86 83.8406V175.42ZM1357.86 97.771H1348.85V79.4551H1357.35C1358.55 72.2319 1360.87 65.8686 1364.3 60.3652C1367.73 54.8618 1372.37 50.5623 1378.2 47.4667C1384.21 44.371 1391.51 42.8232 1400.09 42.8232C1409.7 42.8232 1417.43 44.801 1423.26 48.7565C1429.1 52.5401 1433.31 57.7855 1435.88 64.4928C1438.63 71.2 1440 78.9391 1440 87.7101V113.507H1391.59V98.2869C1391.59 92.7836 1390.39 89 1387.99 86.9362C1385.59 84.7005 1381.21 83.5826 1374.86 83.5826C1368.33 83.5826 1363.87 84.7005 1361.47 86.9362C1359.06 89 1357.86 92.6116 1357.86 97.771Z" fill="var(--fill-0, black)"/>
</g>
</g>
</svg>
