<svg xmlns="http://www.w3.org/2000/svg" viewBox="0 0 421.178 214" preserveAspectRatio="xMidYMid meet" fill="#000">
<g id="Logo MindColor">
<g id="Vector">
<path d="M43.4448 102H14.8688V0.159996H53.6288L72.3248 42.416L82.3568 68.712H84.3328L93.9088 42.416L111.693 0.159996H150.453V102H121.877V59.896L122.941 42.872H120.965L115.189 59.896L99.9888 95.92H65.3328L50.1328 59.896L44.3568 42.872H42.3808L43.4448 59.896V102Z" fill="var(--fill-0, black)"/>
<path d="M194.251 102H165.675V25.392H194.251V102ZM194.251 18.4H165.675V0.159996H194.251V18.4Z" fill="var(--fill-0, black)"/>
<path d="M298.682 102H270.106V63.392C270.106 58.0213 268.941 54.3733 266.61 52.448C264.28 50.4213 259.973 49.408 253.69 49.408C247.408 49.408 243.202 50.3707 241.074 52.296C239.048 54.12 238.034 57.5147 238.034 62.48H235.146L232.714 48.648H237.73C238.338 44.392 239.706 40.3893 241.834 36.64C244.064 32.8907 247.306 29.8507 251.562 27.52C255.92 25.088 261.493 23.872 268.282 23.872C275.173 23.872 280.848 25.1387 285.306 27.672C289.866 30.2053 293.21 33.6507 295.338 38.008C297.568 42.3653 298.682 47.3307 298.682 52.904V102ZM238.034 102H209.458V25.392H236.21V48.952L238.034 49.712V102Z" fill="var(--fill-0, black)"/>
<path d="M348.018 103.52C340.216 103.52 333.578 101.949 328.106 98.808C322.736 95.5653 318.632 90.9547 315.794 84.976C313.058 78.9973 311.69 71.904 311.69 63.696C311.69 55.3867 313.058 48.2933 315.794 42.416C318.53 36.4373 322.482 31.8773 327.65 28.736C332.92 25.4933 339.304 23.872 346.802 23.872C355.821 23.872 362.61 25.848 367.17 29.8C371.73 33.6507 374.568 38.768 375.682 45.152H380.09V62.784H377.202C377.202 57.4133 375.632 53.9173 372.49 52.296C369.45 50.6747 364.738 49.864 358.354 49.864C353.997 49.864 350.501 50.32 347.866 51.232C345.232 52.144 343.357 53.6133 342.242 55.64C341.128 57.5653 340.57 60.2507 340.57 63.696C340.57 67.04 341.128 69.7253 342.242 71.752C343.357 73.7787 345.232 75.248 347.866 76.16C350.501 76.9707 353.997 77.376 358.354 77.376C362.61 77.376 366.106 77.0213 368.842 76.312C371.68 75.6027 373.757 74.2853 375.074 72.36C376.493 70.3333 377.202 67.496 377.202 63.848H380.09L382.218 81.328H377.506C376.29 88.928 373.301 94.552 368.538 98.2C363.877 101.747 357.037 103.52 348.018 103.52ZM405.778 102H379.026V80.416L377.202 78.44V0.159996H405.778V102Z" fill="var(--fill-0, black)"/>
<path d="M56.24 213.52C44.4853 213.52 34.4027 211.392 25.992 207.136C17.5813 202.779 11.1467 196.699 6.688 188.896C2.22933 180.992 0 171.72 0 161.08C0 150.44 2.22933 141.219 6.688 133.416C11.1467 125.512 17.5813 119.432 25.992 115.176C34.4027 110.819 44.4853 108.64 56.24 108.64C67.6907 108.64 77.4693 110.363 85.576 113.808C93.784 117.253 100.067 122.219 104.424 128.704C108.781 135.189 110.96 142.992 110.96 152.112V154.696H79.04V152.112C79.04 146.336 77.4187 142.232 74.176 139.8C70.9333 137.267 65.1067 136 56.696 136C49.8053 136 44.4347 136.709 40.584 138.128C36.8347 139.445 34.2 141.928 32.68 145.576C31.16 149.123 30.4 154.291 30.4 161.08C30.4 167.768 31.16 172.936 32.68 176.584C34.2 180.232 36.8347 182.765 40.584 184.184C44.4347 185.501 49.8053 186.16 56.696 186.16C65.1067 186.16 70.9333 184.944 74.176 182.512C77.4187 179.979 79.04 175.824 79.04 170.048V167.464H110.96V170.048C110.96 179.067 108.781 186.869 104.424 193.456C100.067 199.941 93.784 204.907 85.576 208.352C77.4693 211.797 67.6907 213.52 56.24 213.52Z" fill="var(--fill-0, black)"/>
<path d="M160.897 213.52C152.081 213.52 144.278 211.949 137.489 208.808C130.801 205.565 125.582 200.955 121.833 194.976C118.083 188.997 116.209 181.904 116.209 173.696C116.209 165.387 118.083 158.293 121.833 152.416C125.582 146.437 130.801 141.877 137.489 138.736C144.278 135.493 152.081 133.872 160.897 133.872C169.814 133.872 177.617 135.493 184.305 138.736C190.993 141.877 196.211 146.437 199.961 152.416C203.71 158.293 205.585 165.387 205.585 173.696C205.585 181.904 203.71 188.997 199.961 194.976C196.211 200.955 190.993 205.565 184.305 208.808C177.617 211.949 169.814 213.52 160.897 213.52ZM160.897 188.288C167.382 188.288 171.739 187.275 173.969 185.248C176.198 183.12 177.313 179.269 177.313 173.696C177.313 168.123 176.198 164.272 173.969 162.144C171.739 160.016 167.382 158.952 160.897 158.952C154.411 158.952 150.054 160.016 147.825 162.144C145.595 164.272 144.481 168.123 144.481 173.696C144.481 179.269 145.595 183.12 147.825 185.248C150.054 187.275 154.411 188.288 160.897 188.288Z" fill="var(--fill-0, black)"/>
<path d="M241.026 212H212.45V110.16H241.026V212Z" fill="var(--fill-0, black)"/>
<path d="M292.561 213.52C283.745 213.52 275.942 211.949 269.153 208.808C262.465 205.565 257.246 200.955 253.497 194.976C249.747 188.997 247.873 181.904 247.873 173.696C247.873 165.387 249.747 158.293 253.497 152.416C257.246 146.437 262.465 141.877 269.153 138.736C275.942 135.493 283.745 133.872 292.561 133.872C301.478 133.872 309.281 135.493 315.969 138.736C322.657 141.877 327.875 146.437 331.625 152.416C335.374 158.293 337.249 165.387 337.249 173.696C337.249 181.904 335.374 188.997 331.625 194.976C327.875 200.955 322.657 205.565 315.969 208.808C309.281 211.949 301.478 213.52 292.561 213.52ZM292.561 188.288C299.046 188.288 303.403 187.275 305.633 185.248C307.862 183.12 308.977 179.269 308.977 173.696C308.977 168.123 307.862 164.272 305.633 162.144C303.403 160.016 299.046 158.952 292.561 158.952C286.075 158.952 281.718 160.016 279.489 162.144C277.259 164.272 276.145 168.123 276.145 173.696C276.145 179.269 277.259 183.12 279.489 185.248C281.718 187.275 286.075 188.288 292.561 188.288Z" fill="var(--fill-0, black)"/>
<path d="M372.69 212H344.114V135.392H370.866V157.28L372.69 158.04V212ZM372.69 166.248H367.37V155.456H372.386C373.095 151.2 374.463 147.451 376.49 144.208C378.516 140.965 381.252 138.432 384.698 136.608C388.244 134.784 392.551 133.872 397.618 133.872C403.292 133.872 407.852 135.037 411.298 137.368C414.743 139.597 417.226 142.688 418.746 146.64C420.367 150.592 421.178 155.152 421.178 160.32V175.52H392.602V166.552C392.602 163.309 391.892 161.08 390.474 159.864C389.055 158.547 386.471 157.888 382.722 157.888C378.871 157.888 376.236 158.547 374.818 159.864C373.399 161.08 372.69 163.208 372.69 166.248Z" fill="var(--fill-0, black)"/>
</g>
</g>
</svg>
