<?xml version="1.0" encoding="UTF-8" standalone="no"?>
<!-- Created with Inkscape (http://www.inkscape.org/) -->

<!-- viewBox fix by in[k]firmary (http://inkfirmary.48design.de) -->
<svg
   xmlns:dc="http://purl.org/dc/elements/1.1/"
   xmlns:cc="http://creativecommons.org/ns#"
   xmlns:rdf="http://www.w3.org/1999/02/22-rdf-syntax-ns#"
   xmlns:svg="http://www.w3.org/2000/svg"
   xmlns="http://www.w3.org/2000/svg"
   xmlns:sodipodi="http://sodipodi.sourceforge.net/DTD/sodipodi-0.dtd"
   xmlns:inkscape="http://www.inkscape.org/namespaces/inkscape"
   version="1.0"
   width="100%"
   height="100%"
   id="monster_ag_logo"
   xml:space="preserve"
   inkscape:version="0.48.2 r9819"
   sodipodi:docname="Logo_Die_Monster_AG[1].svg"
   viewBox="0 0 923 143"><metadata
     id="metadata2993"><rdf:RDF><cc:Work
         rdf:about=""><dc:format>image/svg+xml</dc:format><dc:type
           rdf:resource="http://purl.org/dc/dcmitype/StillImage" /><dc:title></dc:title></cc:Work></rdf:RDF></metadata><sodipodi:namedview
     pagecolor="#ffffff"
     bordercolor="#666666"
     borderopacity="1"
     objecttolerance="10"
     gridtolerance="10"
     guidetolerance="10"
     inkscape:pageopacity="0"
     inkscape:pageshadow="2"
     inkscape:window-width="1920"
     inkscape:window-height="1018"
     id="namedview2991"
     showgrid="false"
     fit-margin-top="10"
     fit-margin-left="10"
     fit-margin-right="10"
     fit-margin-bottom="10"
     inkscape:zoom="0.88"
     inkscape:cx="349.69058"
     inkscape:cy="283.02807"
     inkscape:window-x="-8"
     inkscape:window-y="-8"
     inkscape:window-maximized="1"
     inkscape:current-layer="monster_ag_logo" /><defs
     id="defs5" /><path
     id="logo_shadow"
     d="m 293.7411,10.86364 -12.66751,32.9375 -14.26267,-32.53125 -44.03914,0 -20.11163,117.5 44.44576,0 5.81767,-28.3125 12.47984,28.53125 27.93107,0 13.88734,-30.125004 3.81589,29.718754 44.85237,0 -18.70413,-117.71875 -43.44486,0 z m 100.65196,29.625 c -5.37799,1.1e-4 -10.34356,1.15463 -14.91951,3.46875 -4.67037,2.31435 -8.78535,5.67147 -12.32346,10.0625 -3.49099,4.21319 -6.1673,9.21291 -8.00711,14.96875 -1.79266,5.57799 -2.6899,11.700947 -2.68989,18.406246 -10e-6,6.764756 0.89723,12.884594 2.68989,18.343754 1.83981,5.75597 4.51612,10.75568 8.00711,14.96875 3.63245,4.45048 7.74744,7.77637 12.32346,10.03125 4.6703,2.31425 9.63586,3.50002 14.91951,3.5 5.18922,2e-5 10.12399,-1.18575 14.79439,-3.5 4.67028,-2.31423 8.78525,-5.63696 12.32346,-9.96875 3.53805,-4.45043 6.22976,-9.48771 8.06967,-15.125 1.83974,-5.57786 2.75236,-11.663269 2.75245,-18.250004 -9e-5,-6.527279 -0.89731,-12.615836 -2.6899,-18.312496 -1.83989,-5.57782 -4.51622,-10.61196 -8.00711,-15.0625 -3.67973,-4.39103 -7.79471,-7.74815 -12.32345,-10.0625 -4.6704,-2.31412 -9.63595,-3.46864 -14.91951,-3.46875 z m -383.716029,0.0937 0,91.28125 17.703234,0 c 7.358292,1e-5 13.238968,-0.4658 17.6094,-1.375 4.147376,-0.84854 7.726997,-2.28295 10.759563,-4.34375 5.886612,-4.24276 10.372282,-9.77401 13.449452,-16.5625 3.07705,-6.78841 4.62904,-14.553168 4.62911,-23.281254 C 74.82772,77.45192 73.25777,69.65214 70.13612,62.86359 67.10355,56.07522 62.63584,50.54397 56.749228,46.30109 53.984235,44.42224 50.422574,42.98784 46.052221,41.95734 41.681786,41.04828 36.393175,40.58246 30.194377,40.58234 l -19.517346,0 z m 70.687819,0 0,91.28125 24.55308,0 0,-91.28125 -24.55308,0 z m 29.90158,0 0,91.28125 45.41536,0 0,-24.71875 -21.73807,0 0,-9.656254 19.20457,0 0,-23.374996 -19.20457,0 0,-8.8125 21.20635,0 0,-24.71875 -44.88364,0 z m 765.93072,0.3125 c -5.26506,10e-5 -10.18184,1.16454 -14.7944,3.46875 -4.56614,2.24535 -8.59421,5.53406 -12.04195,9.90625 -3.44796,4.19513 -6.0649,9.17507 -7.88201,14.90625 -1.81712,5.67224 -2.72117,11.820037 -2.72117,18.437496 0,6.558504 0.90405,12.671634 2.72117,18.343754 1.72397,5.6722 4.34092,10.65557 7.88201,14.96875 3.54097,4.4314 7.58498,7.75137 12.1045,9.9375 4.42629,2.24525 9.32704,3.37502 14.73185,3.375 7.2684,2e-5 13.70728,-2.01344 19.2984,-6.03125 5.63758,-4.01776 10.23709,-9.84673 13.82479,-17.46875 1.44432,-3.24963 2.5859,-6.96117 3.378,-11.156254 0.74552,-4.076814 1.09463,-8.741358 1.09472,-14 -9e-5,-0.354443 -9e-5,-0.739169 0,-1.09375 -9e-5,-0.354443 -9e-5,-0.746009 0,-1.21875 -0.0464,-0.472616 -0.0708,-1.070454 -0.0938,-1.75 -0.0231,-0.679409 -0.0312,-1.457398 -0.0312,-2.34375 l -38.78447,0 0,20.843754 10.97851,0 c -0.3262,2.42253 -1.23029,4.22458 -2.72117,5.40625 -1.44451,1.29991 -3.42683,1.93755 -5.94278,1.9375 -4.10017,5e-5 -7.25605,-1.69802 -9.4459,-5.125 -2.23645,-3.426887 -3.34681,-8.302845 -3.34672,-14.625004 -9e-5,-6.026608 1.11027,-10.867899 3.34672,-14.531246 2.18985,-3.6041 5.15545,-5.40616 8.8829,-5.40625 2.14321,9e-5 4.04643,0.60305 5.72383,1.84375 1.58409,1.1227 2.99581,2.95941 4.25378,5.5 l 22.45746,-10.53125 c -3.49448,-7.6219 -8.06191,-13.48551 -13.69967,-17.5625 -5.63759,-4.01767 -12.04467,-6.03115 -19.17329,-6.03125 z m -335.861,0.96875 c -8.19711,1.1e-4 -14.78469,3.01011 -19.79884,9 -5.05781,6.04881 -7.60052,13.76029 -7.60051,23.15625 -10e-6,6.166251 1.3249,11.291765 3.941,15.343746 2.57247,4.110839 6.30173,6.980754 11.22873,8.625 0.6104,0.176235 1.77136,0.499 3.47184,0.96875 4.66534,1.350734 7.00618,3.217284 7.00623,5.625004 -5e-5,1.46816 -0.47958,2.58037 -1.43878,3.34375 -0.95927,0.82219 -2.21499,1.25003 -3.78462,1.25 -2.39811,3e-5 -4.88398,-0.75059 -7.41284,-2.21875 -2.79053,-1.52683 -5.78152,-3.82501 -9.008,-6.9375 l -7.60051,24.75 c 4.53455,3.46482 8.85044,5.90689 12.94901,7.375 4.22933,1.64432 8.52628,2.46877 12.88646,2.46875 8.41507,2e-5 15.25468,-3.08383 20.48695,-9.25 5.23211,-6.22486 7.81939,-14.18905 7.81945,-23.9375 -6e-5,-5.989921 -1.27473,-11.150491 -3.84717,-15.437504 -2.70335,-4.169447 -6.26199,-6.930507 -10.66573,-8.28125 -0.39245,-0.117366 -1.18759,-0.370077 -2.40839,-0.78125 -6.54028,-1.820396 -9.82127,-4.009746 -9.82123,-6.593746 -4e-5,-1.35061 0.4416,-2.38894 1.31367,-3.09375 0.9156,-0.7046 2.17131,-1.06241 3.78462,-1.0625 2.26723,9e-5 4.51333,0.60683 6.69344,1.78125 2.13643,1.11585 4.40809,2.80355 6.84984,5.09375 l 7.13134,-23.09375 c -3.61898,-2.64253 -7.27242,-4.65299 -10.97851,-6.0625 -3.74978,-1.35058 -7.49135,-2.03114 -11.19745,-2.03125 z m -105.0934,1.125 0,88.875 23.86496,0 0,-32.125004 c -3e-5,-2.773442 -0.0822,-5.323519 -0.21894,-7.625 -0.13684,-1.652242 -0.30374,-3.813204 -0.53173,-6.46875 l 21.04996,46.218754 24.42796,0 0,-88.875 -23.8024,0 0,29.84375 c -5e-5,3.127626 0.0339,6.389953 0.12511,9.812496 0.13675,2.537524 0.3519,4.806218 0.62555,6.8125 l -21.33145,-46.468746 -24.20902,0 z m 129.70903,1.21875 0,28.625 13.88734,0 0,59.03125 24.83457,0 0,-59.03125 13.88735,0 0,-28.625 -52.60926,0 z m 57.86393,0 0,87.65625 45.44664,0 0,-23.75 -21.73807,0 0,-9.250004 19.17329,0 0,-22.4375 -19.17329,0 0,-8.468746 21.20634,0 0,-23.75 -44.91491,0 z m 50.38853,0 0,87.65625 23.99007,0 0,-29 11.85428,29 27.43063,0 -18.14112,-35.718754 c 4.02006,-0.698468 7.19084,-3.045936 9.53973,-7.0625 2.39396,-4.016438 3.59689,-9.14642 3.59695,-15.374996 -6e-5,-9.48818 -2.33989,-16.78365 -7.03751,-21.90625 -4.74288,-5.06419 -11.55725,-7.59364 -20.45568,-7.59375 l -30.77735,0 z m 118.07369,0.375 -24.33413,87.28125 26.36718,0 2.06434,-10.96875 18.48518,0 2.22072,10.96875 26.39846,0 -23.92751,-87.28125 -27.27424,0 z m -513.29995,7.375 c 15.72718,0.12103 31.81553,7.14949 43.31975,21.59375 -24.85507,35.70053 -74.97447,20.30692 -84.45005,-1.8125 10.03279,-13.12043 25.40312,-19.90228 41.1303,-19.78125 z m 419.21633,14.75 3.78461,0 c 2.30363,8e-5 4.08371,0.76785 5.34851,2.28125 1.26471,1.57176 1.90789,3.73296 1.90794,6.46875 -5e-5,2.677745 -0.64323,4.767847 -1.90794,6.281246 -1.30997,1.455325 -3.09004,2.187576 -5.34851,2.1875 l -3.78461,0 0,-17.218746 z m -663.589763,1.96875 1.000889,0 c 4.994706,9e-5 8.677443,1.46574 11.041063,4.375 2.408135,2.909416 3.628178,7.310159 3.628224,13.249996 -4.6e-5,6.121795 -1.256011,10.553804 -3.753335,13.28125 -2.497408,2.909394 -6.476177,4.375054 -11.916841,4.375004 l 0,-35.28125 z m 359.788513,1.71875 c 3.49091,9e-5 6.36822,1.53942 8.63267,4.625 2.17001,3.08572 3.25283,7.212535 3.25289,12.374996 -6e-5,5.162586 -1.08288,9.251838 -3.25289,12.21875 -2.21727,3.085684 -5.09459,4.625054 -8.63267,4.625004 -3.63251,5e-5 -6.52521,-1.53932 -8.69523,-4.625004 -2.21727,-3.026256 -3.31548,-7.115508 -3.31545,-12.21875 -3e-5,-4.984441 1.09818,-9.07685 3.31545,-12.281246 2.17002,-3.14491 5.06272,-4.71866 8.69523,-4.71875 z m 410.92771,0.71875 0.50044,0 c 0.0452,2.54959 0.24891,5.070996 0.65684,7.562496 0.36252,2.897251 1.08449,6.753249 2.12689,11.5625 l 2.03305,9.906254 -10.134,0 2.09561,-9.906254 c 0.45315,-2.491516 0.88852,-4.712799 1.25111,-6.625 0.36251,-1.912076 0.64915,-3.546779 0.87578,-4.9375 0.3172,-2.66533 0.5036,-5.186736 0.59428,-7.562496 z"
     style="font-size:148px;font-style:normal;font-variant:normal;font-weight:normal;font-stretch:normal;line-height:125%;letter-spacing:0px;word-spacing:0px;fill:#000000;fill-opacity:1;stroke:none;font-family:Monster AG;-inkscape-font-specification:Monster AG"
     inkscape:connector-curvature="0" /><path
     style="font-size:148px;font-style:normal;font-variant:normal;font-weight:normal;font-stretch:normal;line-height:125%;letter-spacing:0px;word-spacing:0px;fill:#0065cc;fill-opacity:1;stroke:none;font-family:Monster AG;-inkscape-font-specification:Monster AG"
     d="m 292.8125,10 -12.65625,32.9375 -14.25,-32.53125 -44,0 -20.09375,117.5 44.40625,0 5.8125,-28.3125 12.46875,28.53125 27.90625,0 13.875,-30.125 3.8125,29.71875 44.8125,0 L 336.21875,10 292.8125,10 z M 393.375,39.625 c -5.37321,1.1e-4 -10.33436,1.15463 -14.90625,3.46875 -4.66622,2.31435 -8.77754,5.67147 -12.3125,10.0625 -3.48789,4.21319 -6.16182,9.21291 -8,14.96875 -1.79106,5.57799 -2.68751,11.700951 -2.6875,18.40625 -10e-6,6.764756 0.89644,12.884593 2.6875,18.34375 1.83818,5.75598 4.51211,10.75568 8,14.96875 3.62922,4.45048 7.74055,7.77637 12.3125,10.03125 4.66615,2.31425 9.6273,3.50003 14.90625,3.5 5.18461,3e-5 10.115,-1.18575 14.78125,-3.5 4.66612,-2.31422 8.77744,-5.63696 12.3125,-9.96875 3.53491,-4.45043 6.22423,-9.48771 8.0625,-15.125 1.83811,-5.577858 2.74991,-11.663265 2.75,-18.25 -9e-5,-6.527279 -0.89651,-12.61584 -2.6875,-18.3125 -1.83826,-5.57782 -4.51221,-10.61196 -8,-15.0625 -3.67646,-4.39103 -7.78778,-7.74815 -12.3125,-10.0625 C 403.615,40.77963 398.65387,39.62511 393.375,39.625 z M 10,39.7187 l 0,91.28125 17.6875,0 c 7.351753,10e-6 13.227202,-0.4658 17.59375,-1.375 4.14369,-0.84853 7.72013,-2.28294 10.75,-4.34375 5.881376,-4.24276 10.36307,-9.774 13.4375,-16.5625 3.07432,-6.78841 4.62493,-14.553164 4.625,-23.28125 -7e-5,-8.849166 -1.56863,-16.64895 -4.6875,-23.4375 C 66.37637,55.21158 61.912626,49.68033 56.03125,45.43745 53.268715,43.5586 49.710219,42.1242 45.34375,41.0937 40.9772,40.18464 35.693289,39.71882 29.5,39.7187 l -19.5,0 z m 70.625,0 0,91.28125 24.53125,0 0,-91.28125 -24.53125,0 z m 29.875,0 0,91.28125 45.375,0 0,-24.71875 -21.71875,0 0,-9.65625 19.1875,0 0,-23.375 -19.1875,0 0,-8.8125 21.1875,0 0,-24.71875 -44.84375,0 z m 765.25,0.3125 c -5.26038,1e-4 -10.17279,1.16454 -14.78125,3.46875 -4.56208,2.24535 -8.58657,5.53406 -12.03125,9.90625 -3.44489,4.19513 -6.05951,9.17507 -7.875,14.90625 -1.81551,5.67224 -2.71875,11.820041 -2.71875,18.4375 0,6.558504 0.90324,12.671635 2.71875,18.34375 1.72244,5.6722 4.33706,10.65558 7.875,14.96875 3.53783,4.43141 7.57824,7.75137 12.09375,9.9375 4.42235,2.24526 9.31875,3.37503 14.71875,3.375 7.26194,3e-5 13.6951,-2.01344 19.28125,-6.03125 5.63257,-4.01776 10.22799,-9.84673 13.8125,-17.46875 1.44304,-3.24963 2.58361,-6.96116 3.375,-11.15625 0.74486,-4.076814 1.09366,-8.741358 1.09375,-14 -9e-5,-0.354443 -9e-5,-0.739169 0,-1.09375 -9e-5,-0.354443 -9e-5,-0.746009 0,-1.21875 -0.0464,-0.472616 -0.0707,-1.070454 -0.0937,-1.75 -0.0231,-0.679409 -0.0312,-1.457398 -0.0312,-2.34375 l -38.75,0 0,20.84375 10.96875,0 c -0.32591,2.42253 -1.22919,4.22459 -2.71875,5.40625 -1.44322,1.29991 -3.42378,1.93755 -5.9375,1.9375 -4.09652,5e-5 -7.2496,-1.69802 -9.4375,-5.125 -2.23446,-3.426883 -3.34384,-8.302841 -3.34375,-14.625 -9e-5,-6.026608 1.10929,-10.867899 3.34375,-14.53125 2.1879,-3.6041 5.15087,-5.40616 8.875,-5.40625 2.14131,9e-5 4.04284,0.60305 5.71875,1.84375 1.58268,1.1227 2.99314,2.95941 4.25,5.5 l 22.4375,-10.53125 c -3.49138,-7.6219 -8.05475,-13.48551 -13.6875,-17.5625 -5.63258,-4.01767 -12.03396,-6.03115 -19.15625,-6.03125 z m -335.5625,0.96875 c -8.18983,1.1e-4 -14.77155,3.01011 -19.78125,9 -5.05331,6.04881 -7.59376,13.76029 -7.59375,23.15625 -10e-6,6.166255 1.32372,11.291769 3.9375,15.34375 2.57018,4.110839 6.29613,6.980754 11.21875,8.625 0.60985,0.176235 1.76978,0.499 3.46875,0.96875 4.6612,1.350732 6.99996,3.21729 7,5.625 -4e-5,1.46816 -0.47915,2.58037 -1.4375,3.34375 -0.95841,0.8222 -2.21302,1.25004 -3.78125,1.25 -2.39598,4e-5 -4.87964,-0.75059 -7.40625,-2.21875 -2.78805,-1.52683 -5.77639,-3.82501 -9,-6.9375 l -7.59375,24.75 c 4.53052,3.46483 8.84257,5.90689 12.9375,7.375 4.22557,1.64432 8.5187,2.46878 12.875,2.46875 8.4076,3e-5 15.24113,-3.08382 20.46875,-9.25 5.22746,-6.22486 7.81244,-14.18904 7.8125,-23.9375 -6e-5,-5.989917 -1.2736,-11.150487 -3.84375,-15.4375 -2.70095,-4.169447 -6.25643,-6.930507 -10.65625,-8.28125 -0.39211,-0.117366 -1.18654,-0.370077 -2.40625,-0.78125 -6.53447,-1.8204 -9.81254,-4.00975 -9.8125,-6.59375 -4e-5,-1.35061 0.4412,-2.38894 1.3125,-3.09375 0.91478,-0.7046 2.16938,-1.06241 3.78125,-1.0625 2.26522,9e-5 4.50932,0.60683 6.6875,1.78125 2.13453,1.11585 4.40417,2.80355 6.84375,5.09375 l 7.125,-23.09375 c -3.61576,-2.64253 -7.26596,-4.65299 -10.96875,-6.0625 -3.74645,-1.35058 -7.4847,-2.03114 -11.1875,-2.03125 z m -105,1.125 0,88.875 23.84375,0 0,-32.125 c -3e-5,-2.773442 -0.0821,-5.323519 -0.21875,-7.625 -0.13671,-1.652242 -0.30347,-3.813204 -0.53125,-6.46875 l 21.03125,46.21875 24.40625,0 0,-88.875 -23.78125,0 0,29.84375 c -5e-5,3.12763 0.0339,6.389957 0.125,9.8125 0.13663,2.537524 0.35159,4.806218 0.625,6.8125 l -21.3125,-46.46875 -24.1875,0 z m 129.59375,1.21875 0,28.625 13.875,0 0,59.03125 24.8125,0 0,-59.03125 13.875,0 0,-28.625 -52.5625,0 z m 57.8125,0 0,87.65625 45.40625,0 0,-23.75 -21.71875,0 0,-9.25 19.15625,0 0,-22.4375 -19.15625,0 0,-8.46875 21.1875,0 0,-23.75 -44.875,0 z m 50.34375,0 0,87.65625 23.96875,0 0,-29 11.84375,29 27.40625,0 -18.125,-35.71875 c 4.01649,-0.698468 7.18445,-3.045936 9.53125,-7.0625 2.39183,-4.016438 3.59369,-9.14642 3.59375,-15.375 -6e-5,-9.48818 -2.33781,-16.78365 -7.03125,-21.90625 -4.73867,-5.06419 -11.54698,-7.59364 -20.4375,-7.59375 l -30.75,0 z m 117.96875,0.375 -24.3125,87.28125 26.34375,0 2.0625,-10.96875 18.46875,0 2.21875,10.96875 26.375,0 -23.90625,-87.28125 -27.25,0 z m -512.84375,7.375 c 15.7132,0.12103 31.78725,7.14949 43.28125,21.59375 -24.83298,35.70053 -74.90784,20.306924 -84.375,-1.8125 C 246.99263,57.75452 262.3493,50.97267 278.0625,51.0937 z m 418.84375,14.75 3.78125,0 c 2.30158,8e-5 4.08008,0.76785 5.34375,2.28125 1.26359,1.57176 1.9062,3.73296 1.90625,6.46875 -5e-5,2.677749 -0.64266,4.767851 -1.90625,6.28125 -1.3088,1.455325 -3.08729,2.187576 -5.34375,2.1875 l -3.78125,0 0,-17.21875 z m -663,1.96875 1,0 c 4.990267,9e-5 8.669731,1.46574 11.03125,4.375 2.405995,2.90942 3.624954,7.310163 3.625,13.25 -4.6e-5,6.121795 -1.254895,10.553804 -3.75,13.28125 -2.495188,2.90939 -6.470421,4.37505 -11.90625,4.375 l 0,-35.28125 z M 393.375,69.5312 c 3.48781,9e-5 6.36256,1.53942 8.625,4.625 2.16808,3.085724 3.24994,7.212539 3.25,12.375 -6e-5,5.162586 -1.08192,9.251838 -3.25,12.21875 -2.2153,3.08569 -5.09006,4.62505 -8.625,4.625 -3.62928,5e-5 -6.51941,-1.53931 -8.6875,-4.625 -2.2153,-3.026256 -3.31253,-7.115508 -3.3125,-12.21875 -3e-5,-4.984441 1.0972,-9.07685 3.3125,-12.28125 2.16809,-3.14491 5.05822,-4.71866 8.6875,-4.71875 z m 410.5625,0.71875 0.5,0 c 0.0452,2.54959 0.24869,5.071 0.65625,7.5625 0.3622,2.897251 1.08353,6.753249 2.125,11.5625 l 2.03125,9.90625 -10.125,0 2.09375,-9.90625 c 0.45275,-2.491516 0.88773,-4.712799 1.25,-6.625 0.36219,-1.912076 0.64857,-3.546779 0.875,-4.9375 0.31692,-2.66533 0.50315,-5.18674 0.59375,-7.5625 z"
     id="logo_blue"
     inkscape:connector-curvature="0" /><path
     sodipodi:type="arc"
     style="color:#000000;fill:#000000;fill-opacity:1;fill-rule:evenodd;stroke:none;stroke-width:1;marker:none;visibility:visible;display:inline;overflow:visible;enable-background:accumulate"
     id="eye_dot"
     sodipodi:cx="319.1051"
     sodipodi:cy="-102.31534"
     sodipodi:rx="12.428977"
     sodipodi:ry="15.553977"
     d="m 331.53408,-102.31534 a 12.428977,15.553977 0 1 1 -24.85795,0 12.428977,15.553977 0 1 1 24.85795,0 z"
     transform="matrix(1.0803974,0,0,1,-64.778078,175.67045)" /></svg>