<?xml version="1.0" encoding="UTF-8" standalone="no"?>
<svg
   version="1.1"
   width="659.05426pt"
   height="250.06331pt"
   viewBox="0 0 659.05423 250.0633"
   id="svg3503"
   sodipodi:docname="VietJet Air Cargo logo.svg"
   inkscape:version="1.1 (c68e22c387, 2021-05-23)"
   xmlns:inkscape="http://www.inkscape.org/namespaces/inkscape"
   xmlns:sodipodi="http://sodipodi.sourceforge.net/DTD/sodipodi-0.dtd"
   xmlns="http://www.w3.org/2000/svg"
   xmlns:svg="http://www.w3.org/2000/svg">
  <defs
     id="defs3507" />
  <sodipodi:namedview
     id="namedview3505"
     pagecolor="#ffffff"
     bordercolor="#666666"
     borderopacity="1.0"
     inkscape:pageshadow="2"
     inkscape:pageopacity="0.0"
     inkscape:pagecheckerboard="0"
     inkscape:document-units="pt"
     showgrid="false"
     inkscape:zoom="10"
     inkscape:cx="357.45"
     inkscape:cy="19.55"
     inkscape:window-width="1920"
     inkscape:window-height="1002"
     inkscape:window-x="-8"
     inkscape:window-y="-8"
     inkscape:window-maximized="1"
     inkscape:current-layer="g3499" />
  <g
     enable-background="new"
     id="g3501"
     transform="translate(-327.9236,-436.92193)">
    <g
       id="g3499">
      <clipPath
         id="cp0">
        <path
           transform="matrix(1,0,0,-1,0,841.89)"
           d="M 0,0 H 1190.55 V 841.89 H 0 Z"
           id="path824" />
      </clipPath>
      <clipPath
         id="cp308">
        <path
           transform="matrix(1,0,0,-1,0,841.89)"
           d="m 0,603.781 h 276.416 v 195.59 H 0 Z"
           id="path3274" />
      </clipPath>
      <clipPath
         id="cp311">
        <path
           transform="matrix(1,0,0,-1,0,841.89)"
           d="M 0,0 H 1190.551 V 841.89 H 0 Z"
           id="path3307" />
      </clipPath>
      <g
         id="g3421"
         data-name="PlacedPDF"
         transform="matrix(7.5,0,0,7.5,-4692.8449,-108.48898)">
        <clipPath
           id="cp312">
          <path
             transform="matrix(1,0,0,-1,0,841.89)"
             d="M 653.135,733.258 H 773.609 V 773.86 H 653.135 Z"
             id="path3386" />
        </clipPath>
        <g
           clip-path="url(#cp312)"
           id="g3419">
          <path
             transform="matrix(1,0,0,-1,692.6927,77.467288)"
             d="M 0,0 C -1.029,0 -1.899,-0.71 -2.499,-1.916 -2.743,-2.447 -2.788,-2.59 -2.954,-3.242 h 4.3 C 1.444,-2.88 1.535,-2.286 1.535,-1.895 1.535,-0.659 0.982,0 0,0 m 4.153,-5.533 h -7.291 c -0.069,-1.602 0.576,-2.754 2.409,-2.754 1.306,0 2.611,0.39 3.293,0.713 L 2.91,-9.799 c -1.008,-0.499 -2.614,-0.915 -4.442,-0.915 -3.117,0 -4.947,1.762 -4.947,4.741 0,1.81 0.613,3.871 1.671,5.334 1.187,1.672 2.997,2.725 5.239,2.725 2.731,0 4.263,-1.599 4.263,-4.344 0,-0.69 -0.195,-2.215 -0.541,-3.275"
             fill="#e42616"
             id="path3389" />
          <path
             transform="matrix(1,0,0,-1,674.1818,91.5968)"
             d="m 0,0 h -3.226 l -1.52,15.873 h 3.524 l 0.648,-10.791 4.96,10.791 h 3.642 z"
             fill="#e42616"
             id="path3391" />
          <path
             transform="matrix(1,0,0,-1,704.6345,78.01361)"
             d="m 0,0 h -1.911 l -1.342,-6.459 c -0.043,-0.187 -0.262,-1.309 0.87,-1.367 0.319,-0.022 0.793,0.06 1.001,0.154 0,0 -0.551,-2.496 -3.059,-2.496 -1.94,0 -2.822,1.46 -2.367,3.641 l 2.252,10.722 c 0,0 1.273,1.439 3.748,1.021 C -1.235,3.191 -1.43,2.29 -1.43,2.29 l 1.907,0.005 z"
             fill="#e42616"
             id="path3393" />
          <path
             transform="matrix(1,0,0,-1,728.3495,78.01361)"
             d="m 0,0 h -1.913 l -1.346,-6.459 c -0.043,-0.187 -0.26,-1.309 0.874,-1.367 0.319,-0.022 0.793,0.06 1,0.154 0,0 -0.552,-2.496 -3.057,-2.496 -1.937,0 -2.823,1.46 -2.365,3.641 L -4.56,4.195 c 0,0 1.277,1.439 3.753,1.021 C -1.237,3.191 -1.434,2.29 -1.434,2.29 l 1.915,0.005 z"
             fill="#e42616"
             id="path3395" />
          <path
             transform="matrix(1,0,0,-1,716.4059,77.467288)"
             d="M 0,0 C -1.027,0 -1.902,-0.71 -2.495,-1.916 -2.748,-2.447 -2.79,-2.59 -2.952,-3.242 H 1.342 C 1.444,-2.88 1.535,-2.286 1.535,-1.895 1.535,-0.659 0.986,0 0,0 m 4.155,-5.533 h -7.289 c -0.073,-1.602 0.573,-2.754 2.403,-2.754 1.303,0 2.609,0.39 3.294,0.713 l 0.349,-2.225 c -1.008,-0.499 -2.612,-0.915 -4.449,-0.915 -3.109,0 -4.939,1.762 -4.939,4.741 0,1.81 0.61,3.871 1.667,5.334 1.192,1.672 3.003,2.725 5.245,2.725 2.728,0 4.263,-1.599 4.263,-4.344 0,-0.69 -0.194,-2.215 -0.544,-3.275"
             fill="#e42616"
             id="path3397" />
          <path
             transform="matrix(1,0,0,-1,754.0151,78.061038)"
             d="m 0,0 c -0.846,0.324 -1.768,0.347 -2.357,0.095 l -2.085,-10.097 h -3.512 l 2.428,11.649 c 1.477,0.806 4.223,1.281 6.374,0.901 z"
             fill="#e42616"
             id="path3399" />
          <path
             transform="matrix(1,0,0,-1,736.9777,79.25171)"
             d="m 0,0 -3.667,-6.519 h 3.588 z m -0.117,-12.345 0.036,3.537 h -4.865 l -1.964,-3.537 h -3.484 l 9.541,15.873 h 3.638 l 0.622,-15.873 z"
             fill="#e42616"
             id="path3401" />
          <path
             transform="matrix(1,0,0,-1,701.3019,93.3313)"
             d="m 0,0 c -3.154,0 -4.878,2.055 -4.625,4.202 1.561,-1.806 4.466,-1.811 6.196,-0.296 0.64,0.551 1.162,1.437 1.594,3.568 0.745,3.632 2.13,10.134 2.13,10.134 H 8.826 L 6.381,5.986 C 5.575,2.361 3.154,0 0,0"
             fill="#e42616"
             id="path3403" />
          <path
             transform="matrix(1,0,0,-1,683.7802,88.05994)"
             d="m 0,0 h -3.524 l 2.587,12.337 h 3.529 z"
             fill="#e42616"
             id="path3405" />
          <path
             transform="matrix(1,0,0,-1,744.4012,88.05994)"
             d="m 0,0 h -3.531 l 2.594,12.337 h 3.532 z"
             fill="#e42616"
             id="path3407" />
          <path
             transform="matrix(1,0,0,-1,724.2603,93.0694)"
             d="m 0,0 c -0.196,0.131 -0.625,0.279 -1.135,0.279 -0.805,0 -1.447,-0.411 -1.958,-1.052 -0.87,-1.086 -1.413,-2.994 -1.413,-4.391 0,-1.35 0.476,-2.204 1.627,-2.204 0.593,0 1.169,0.181 1.449,0.344 L -1.2,-8.8 c -0.543,-0.378 -1.464,-0.658 -2.5,-0.658 -2.451,0 -3.553,1.826 -3.553,4.129 0,2.17 0.905,4.754 2.5,6.201 0.889,0.822 2.04,1.315 3.355,1.315 1.021,0 1.875,-0.279 2.32,-0.657 z"
             fill="#2d2e83"
             id="path3409" />
          <path
             transform="matrix(1,0,0,-1,729.7556,94.81323)"
             d="m 0,0 c -0.774,0 -1.415,-0.46 -1.892,-1.315 -0.461,-0.839 -0.773,-2.106 -0.773,-3.076 0,-1.085 0.428,-1.695 1.381,-1.695 0.362,0 0.659,0.067 0.856,0.149 l 1.185,5.789 C 0.624,-0.082 0.377,0 0,0 m 1.891,-7.056 c -0.805,-0.378 -1.908,-0.658 -3.438,-0.658 -2.334,0 -3.651,1.25 -3.651,3.306 0,1.398 0.526,3.026 1.398,4.096 0.938,1.135 2.319,1.792 4.21,1.792 1.284,0 2.468,-0.279 3.11,-0.657 z"
             fill="#2d2e83"
             id="path3411" />
          <path
             transform="matrix(1,0,0,-1,739.2963,95.17499)"
             d="m 0,0 c -0.609,0.231 -1.267,0.246 -1.694,0.065 l -1.498,-7.252 h -2.565 l 1.744,8.372 c 0.921,0.394 2.204,0.657 3.799,0.657 0.428,0 0.708,-0.016 1.052,-0.049 z"
             fill="#2d2e83"
             id="path3413" />
          <path
             transform="matrix(1,0,0,-1,744.9554,94.81323)"
             d="m 0,0 c -0.856,0 -1.497,-0.493 -1.974,-1.48 -0.411,-0.822 -0.74,-2.22 -0.74,-3.142 0,-1.02 0.394,-1.529 1.348,-1.529 0.346,0 0.691,0.082 0.922,0.197 l 1.2,5.806 C 0.608,-0.082 0.394,0 0,0 m 1.71,-7.615 c -0.526,-2.55 -2.253,-3.635 -4.622,-3.635 -1.299,0 -2.532,0.279 -3.207,0.658 l 0.97,1.595 c 0.462,-0.246 1.284,-0.46 2.139,-0.46 1.3,0 1.958,0.691 2.171,1.644 l 0.115,0.477 c -0.328,-0.163 -0.855,-0.279 -1.529,-0.279 -1.777,0 -2.977,1.167 -2.977,3.109 0,1.332 0.558,2.977 1.348,4.029 0.938,1.251 2.353,1.957 4.244,1.957 1.365,0 2.467,-0.312 3.091,-0.657 z"
             fill="#2d2e83"
             id="path3415" />
          <path
             transform="matrix(1,0,0,-1,753.8877,94.92883)"
             d="m 0,0 c -0.691,0 -1.184,-0.525 -1.529,-1.315 -0.379,-0.839 -0.708,-2.352 -0.708,-3.257 0,-0.756 0.231,-1.282 0.955,-1.282 0.706,0 1.167,0.493 1.513,1.282 0.362,0.84 0.724,2.369 0.724,3.273 C 0.955,-0.543 0.707,0 0,0 m 2.22,-5.625 c -0.822,-1.217 -2.072,-1.973 -3.749,-1.973 -2.106,0 -3.192,1.349 -3.192,3.273 0,1.299 0.477,2.911 1.201,3.963 0.839,1.234 2.105,1.958 3.734,1.958 2.105,0 3.208,-1.332 3.208,-3.257 0,-1.299 -0.493,-2.911 -1.202,-3.964"
             fill="#2d2e83"
             id="path3417" />
        </g>
      </g>
      <clipPath
         id="cp313">
        <path
           transform="matrix(1,0,0,-1,0,841.89)"
           d="M 0,0 H 1190.551 V 841.89 H 0 Z"
           id="path3425" />
      </clipPath>
      <clipPath
         id="cp314">
        <path
           transform="matrix(1,0,0,-1,0,841.89)"
           d="M 0,0 H 1190.551 V 841.89 H 0 Z"
           id="path3438" />
      </clipPath>
      <clipPath
         id="cp315">
        <path
           transform="matrix(1,0,0,-1,0,841.89)"
           d="M 669.959,513.452 H 774.80398 V 493.46403 H 669.959 Z"
           id="path3449" />
      </clipPath>
      <clipPath
         id="cp317">
        <path
           transform="matrix(1,0,0,-1,0,841.89)"
           d="M 0,0 H 1190.551 V 841.89 H 0 Z"
           id="path3461" />
      </clipPath>
      <clipPath
         id="cp318">
        <path
           transform="matrix(1,0,0,-1,0,841.89)"
           d="M 0,0 H 1190.55 V 841.89 H 0 Z"
           id="path3472" />
      </clipPath>
    </g>
  </g>
</svg>
