<svg fill="#0073C6"
   xmlns:svg="http://www.w3.org/2000/svg"
   xmlns="http://www.w3.org/2000/svg"
   version="1.0"
  
  
   viewBox="0 0 302.06666 157.08542"
   id="svg2"><title>Dove</title><defs
     id="defs22" /><path
     d="m 146.71333,21.350384 c 12.12,-6.91 25.29,-13.6500003 39.63,-13.2700003 8.84,-0.14 17.82,2.6600003 24.79,8.1500003 6.95,5.66 9.56,15.1 8.69,23.77 -0.65,7.89 -4.91,14.77 -9.66,20.87 -0.07,1 -0.13,2 -0.18,3 5.22,-0.3 8.92,-4.42 12.68,-7.57 3.69,-2.99 6.59,-6.78 9.87,-10.18 7.53,-7.28 16.25,-14.09 26.76,-16.18 8.78,-1.99 18.31,0.2 25.39,5.75 3.51,2.89 7.11,5.67 10.57,8.63 -4.89,2.65 -10.52,4.03 -14.75,7.83 -11.33,10.49 -16.93,25.23 -24.83,38.15 -8.58,14.809996 -19.43,28.549996 -33.15,38.919996 -17.22,12.86 -38.72,19.5 -60.13,19.8 -6.99,-0.13 -13.98,-0.54 -20.89,-1.6 -13.28,-2.77 -26.3,-6.91 -38.58,-12.69 -31.64,-14.61 -61.29,-33.27 -89.29,-53.969996 -2.3,-1.74 -4.77,-3.29 -6.82,-5.31 0.02,-0.48 0.05,-1.44 0.07,-1.92 6.26,1.29 12.3,3.49 18.61,4.61 24.01,4.76 48.4,8.06 72.9,8.68 15.87,-0.08 32.6,0.99 47.42,-5.74 0.13,-0.84 0.26,-1.67 0.39,-2.5 -3.93,-1.3 -7.92,0.07 -11.88,0.35 -12.39,1.24 -24.79,-0.94 -36.85,-3.65 -18.15,-4.66 -35.82,-12.31 -50.63,-23.94 0.02,-0.43 0.06,-1.3 0.08,-1.73 19.07,2.57 38.47,-0.98 56.32,-7.76 14.93,-5.82 29.69,-12.26 43.47,-20.5 z"
     id="path19"
      /></svg>