<svg fill="#ED1D24"
  
  
  
   xmlns:svg="http://www.w3.org/2000/svg"
   xmlns="http://www.w3.org/2000/svg"
  
  
   version="1.0"
  
  
   viewBox="0 0 611.99995 791.99987"
   id="root"
   xml:space="preserve"
  
  
  
   inkscape:output_extension="org.inkscape.output.svg.inkscape"><title>Marvel</title>
 Converted with TEXTCAFE (tm) http://www.texterity.com 
  <title
   id="title2418">Marvel Comics -- Page 1</title><defs
   id="defs2420"><style
     type="text/css"
     id="style2422" /><clipPath
     id="id3"><path
       d="M 0,792 612,792 612,0 0,0 0,792 Z"
       id="path2428"
       /></clipPath></defs><defs
   id="defs2430" /><g
   clip-path="url(#id3)"
   id="g2505"
   transform="matrix(4.25827,0,0,-4.25827,-984.64125,2094.6643)"><path
     d="m 508.58,305.914 -410.979,0 0,185.991 410.979,0 0,-185.991 z"
     id="path2507"
     style="fill-rule:nonzero;stroke:none"
     /><path
     d="m 452.5,465.5 23,0 0,-109 19.5,0 0,-27.5 -42.5,0 0,136.5 z"
     id="path2509"
     style="fill-rule:nonzero;stroke:none"
     /><path
     d="m 294,400.5 c 16.5,1 15,21.5 15,21.5 -2.5,20 -15,19 -15,19 l 0,-40.5 z m -53,-31.5 -7,41.5 -6,-41.5 13,0 z m -126.5,-39.5 0,136 31,0 11,-57 12.5,57 30,0 0,-122.5 19.5,122.5 30.5,0 19,-122.5 0,122 40.5,0 c 0,0 14,-2.5 21,-22 l -3,22.5 24.5,0 11.5,-70.5 12,70 69,0 0,-25.5 -20.5,0 0,-28 19.5,0 0,-28.5 -19,0 0,-26 20,0 0,-27.5 -44.5,0 0,131 -23,-131 -27.5,0 -14.5,87 c 0,0 -2.5,-24 -16,-35 l 17.5,-52 -24,0 -17,45.5 0,-45.5 -48.5,0 -2.5,13 -18.5,0 -4,-13 -46,0 0,50 -12,-50 -12.5,0 -11,49.5 0,-49 -25,-0.5 z"
     id="path2515"
     style="fill-rule:nonzero;stroke:none"
     /></g></svg>